<svg width="1200" height="1200" viewBox="0 0 1200 1200" fill="none" xmlns="http://www.w3.org/2000/svg">
<rect width="1200" height="1200" rx="600" fill="white"/>
<path d="M1200 600C1200 931.371 931.371 1200 600 1200C268.629 1200 0 931.371 0 600C0 268.629 268.629 0 600 0C931.371 0 1200 268.629 1200 600Z" fill="black"/>
<path d="M540 705.412H520C500.699 705.412 485 721.098 485 740.383V820.316C485 839.601 500.699 855.287 520 855.287H540C559.301 855.287 575 839.601 575 820.316V740.383C575 721.098 559.301 705.412 540 705.412ZM545 820.316C545 823.072 542.758 825.312 540 825.312H520C517.242 825.312 515 823.072 515 820.316V740.383C515 737.627 517.242 735.387 520 735.387H540C542.758 735.387 545 737.627 545 740.383V820.316Z" fill="#1ED700"/>
<path d="M420 825.312H405V720.4C405 712.121 398.285 705.412 390 705.412H360C351.715 705.412 345 712.121 345 720.4C345 728.678 351.715 735.387 360 735.387H375V825.312H360C351.715 825.312 345 832.021 345 840.3C345 848.578 351.715 855.287 360 855.287H420C428.285 855.287 435 848.578 435 840.3C435 832.021 428.285 825.312 420 825.312Z" fill="#1ED700"/>
<path d="M820 705.412H800C780.699 705.412 765 721.098 765 740.383V820.316C765 839.601 780.699 855.287 800 855.287H820C839.301 855.287 855 839.601 855 820.316V740.383C855 721.098 839.301 705.412 820 705.412ZM825 820.316C825 823.072 822.758 825.312 820 825.312H800C797.242 825.312 795 823.072 795 820.316V740.383C795 737.627 797.242 735.387 800 735.387H820C822.758 735.387 825 737.627 825 740.383V820.316Z" fill="#1ED700"/>
<path d="M700 825.312H685V720.4C685 712.121 678.285 705.412 670 705.412H640C631.715 705.412 625 712.121 625 720.4C625 728.678 631.715 735.387 640 735.387H655V825.312H640C631.715 825.312 625 832.021 625 840.3C625 848.578 631.715 855.287 640 855.287H700C708.285 855.287 715 848.578 715 840.3C715 832.021 708.285 825.312 700 825.312Z" fill="#1ED700"/>
<path d="M540 524.563H520C500.699 524.563 485 540.249 485 559.534V639.467C485 658.752 500.699 674.438 520 674.438H540C559.301 674.438 575 658.752 575 639.467V559.534C575 540.249 559.301 524.563 540 524.563ZM545 639.467C545 642.223 542.758 644.463 540 644.463H520C517.242 644.463 515 642.223 515 639.467V559.534C515 556.778 517.242 554.538 520 554.538H540C542.758 554.538 545 556.778 545 559.534V639.467Z" fill="#1ED700"/>
<path d="M420 644.463H405V539.55C405 531.272 398.285 524.563 390 524.563H360C351.715 524.563 345 531.272 345 539.55C345 547.829 351.715 554.538 360 554.538H375V644.463H360C351.715 644.463 345 651.172 345 659.451C345 667.729 351.715 674.438 360 674.438H420C428.285 674.438 435 667.729 435 659.451C435 651.172 428.285 644.463 420 644.463Z" fill="#1ED700"/>
<path d="M680 524.563H660C640.699 524.563 625 540.249 625 559.534V639.467C625 658.752 640.699 674.438 660 674.438H680C699.301 674.438 715 658.752 715 639.467V559.534C715 540.249 699.301 524.563 680 524.563ZM685 639.467C685 642.223 682.758 644.463 680 644.463H660C657.242 644.463 655 642.223 655 639.467V559.534C655 556.778 657.242 554.538 660 554.538H680C682.758 554.538 685 556.778 685 559.534V639.467Z" fill="#1ED700"/>
<path d="M840 644.463H825V539.55C825 531.272 818.285 524.563 810 524.563H780C771.715 524.563 765 531.272 765 539.55C765 547.829 771.715 554.538 780 554.538H795V644.463H780C771.715 644.463 765 651.172 765 659.451C765 667.729 771.715 674.438 780 674.438H840C848.285 674.438 855 667.729 855 659.451C855 651.172 848.285 644.463 840 644.463Z" fill="#1ED700"/>
<path d="M400 343.714H380C360.699 343.714 345 359.4 345 378.684V458.618C345 477.903 360.699 493.589 380 493.589H400C419.301 493.589 435 477.903 435 458.618V378.684C435 359.4 419.301 343.714 400 343.714ZM405 458.618C405 461.373 402.758 463.614 400 463.614H380C377.242 463.614 375 461.373 375 458.618V378.684C375 375.929 377.242 373.689 380 373.689H400C402.758 373.689 405 375.929 405 378.684V458.618Z" fill="#1ED700"/>
<path d="M560 463.614H545V358.701C545 350.423 538.285 343.714 530 343.714H500C491.715 343.714 485 350.423 485 358.701C485 366.979 491.715 373.689 500 373.689H515V463.614H500C491.715 463.614 485 470.323 485 478.601C485 486.88 491.715 493.589 500 493.589H560C568.285 493.589 575 486.88 575 478.601C575 470.323 568.285 463.614 560 463.614Z" fill="#1ED700"/>
<path d="M820 343.714H800C780.699 343.714 765 359.4 765 378.684V458.618C765 477.903 780.699 493.589 800 493.589H820C839.301 493.589 855 477.903 855 458.618V378.684C855 359.4 839.301 343.714 820 343.714ZM825 458.618C825 461.373 822.758 463.614 820 463.614H800C797.242 463.614 795 461.373 795 458.618V378.684C795 375.929 797.242 373.689 800 373.689H820C822.758 373.689 825 375.929 825 378.684V458.618Z" fill="#1ED700"/>
<path d="M700 463.614H685V358.701C685 350.423 678.285 343.714 670 343.714H640C631.715 343.714 625 350.423 625 358.701C625 366.979 631.715 373.689 640 373.689H655V463.614H640C631.715 463.614 625 470.323 625 478.601C625 486.88 631.715 493.589 640 493.589H700C708.285 493.589 715 486.88 715 478.601C715 470.323 708.285 463.614 700 463.614Z" fill="#1ED700"/>
<rect x="64" y="494" width="1071" height="226" fill="black" fill-opacity="0.45"/>
<path d="M248.66 615.64C248.66 624.88 250.347 632.433 253.72 638.3C257.24 644.167 262.813 647.1 270.44 647.1C272.64 647.1 274.693 647.027 276.6 646.88C278.507 646.733 280.487 646.513 282.54 646.22V589.9C280.487 588.727 278.14 587.773 275.5 587.04C272.86 586.16 270.073 585.72 267.14 585.72C260.687 585.72 255.993 588.287 253.06 593.42C250.127 598.553 248.66 605.96 248.66 615.64ZM309.6 664.92C304.613 666.533 298.527 667.853 291.34 668.88C284.153 669.907 277.113 670.42 270.22 670.42C254.087 670.42 241.84 665.653 233.48 656.12C225.267 646.587 221.16 633.533 221.16 616.96C221.16 600.093 224.607 586.82 231.5 577.14C238.54 567.313 248.88 562.4 262.52 562.4C266.187 562.4 269.78 562.84 273.3 563.72C276.82 564.453 279.9 565.553 282.54 567.02V519.94L309.6 515.32V664.92ZM387.48 534.9C387.48 540.18 385.793 544.36 382.42 547.44C379.047 550.52 375.013 552.06 370.32 552.06C365.627 552.06 361.593 550.52 358.22 547.44C354.993 544.36 353.38 540.18 353.38 534.9C353.38 529.473 354.993 525.22 358.22 522.14C361.593 519.06 365.627 517.52 370.32 517.52C375.013 517.52 379.047 519.06 382.42 522.14C385.793 525.22 387.48 529.473 387.48 534.9ZM427.74 663.6C422.167 666.24 416.887 668 411.9 668.88C407.06 669.907 402.587 670.42 398.48 670.42C391.44 670.42 385.5 669.393 380.66 667.34C375.967 665.287 372.153 662.353 369.22 658.54C366.433 654.58 364.453 649.813 363.28 644.24C362.107 638.667 361.52 632.287 361.52 625.1V587.04H332.92V564.6H388.58V628.62C388.58 634.78 389.68 639.4 391.88 642.48C394.227 645.413 398.04 646.88 403.32 646.88C405.813 646.88 408.82 646.587 412.34 646C415.86 645.267 419.82 643.873 424.22 641.82L427.74 663.6ZM469.76 613C469.76 621.507 471.3 628.033 474.38 632.58C477.46 636.98 482.3 639.18 488.9 639.18C491.833 639.18 494.547 638.813 497.04 638.08C499.68 637.347 502.027 636.393 504.08 635.22V585.5C502.027 585.06 500.193 584.767 498.58 584.62C496.967 584.473 495.28 584.4 493.52 584.4C477.68 584.4 469.76 593.933 469.76 613ZM531.36 655.46C531.36 672.327 527.253 684.793 519.04 692.86C510.973 700.927 497.92 704.96 479.88 704.96C473.427 704.96 467.193 704.3 461.18 702.98C455.313 701.66 449.667 700.12 444.24 698.36L449.3 675.48C453.553 677.093 458.027 678.56 462.72 679.88C467.413 681.347 473.28 682.08 480.32 682.08C485.013 682.08 488.9 681.493 491.98 680.32C495.06 679.293 497.48 677.827 499.24 675.92C501 674.013 502.247 671.74 502.98 669.1C503.713 666.607 504.08 663.893 504.08 660.96V656.78C500.267 658.247 496.747 659.347 493.52 660.08C490.44 660.813 487.067 661.18 483.4 661.18C469.907 661.18 459.64 656.927 452.6 648.42C445.707 639.913 442.26 628.107 442.26 613C442.26 595.987 446.953 583.3 456.34 574.94C465.727 566.58 478.487 562.4 494.62 562.4C505.913 562.4 518.16 564.233 531.36 567.9V655.46ZM607.48 534.9C607.48 540.18 605.793 544.36 602.42 547.44C599.047 550.52 595.013 552.06 590.32 552.06C585.627 552.06 581.593 550.52 578.22 547.44C574.993 544.36 573.38 540.18 573.38 534.9C573.38 529.473 574.993 525.22 578.22 522.14C581.593 519.06 585.627 517.52 590.32 517.52C595.013 517.52 599.047 519.06 602.42 522.14C605.793 525.22 607.48 529.473 607.48 534.9ZM647.74 663.6C642.167 666.24 636.887 668 631.9 668.88C627.06 669.907 622.587 670.42 618.48 670.42C611.44 670.42 605.5 669.393 600.66 667.34C595.967 665.287 592.153 662.353 589.22 658.54C586.433 654.58 584.453 649.813 583.28 644.24C582.107 638.667 581.52 632.287 581.52 625.1V587.04H552.92V564.6H608.58V628.62C608.58 634.78 609.68 639.4 611.88 642.48C614.227 645.413 618.04 646.88 623.32 646.88C625.813 646.88 628.82 646.587 632.34 646C635.86 645.267 639.82 643.873 644.22 641.82L647.74 663.6ZM686.46 587.04H662.92V564.6H686.46V538.64L713.52 534.24V564.6H756.86V587.04H713.52V628.84C713.52 632.653 713.887 635.733 714.62 638.08C715.353 640.427 716.38 642.26 717.7 643.58C719.02 644.9 720.633 645.78 722.54 646.22C724.447 646.66 726.573 646.88 728.92 646.88C731.413 646.88 733.687 646.807 735.74 646.66C737.94 646.513 739.993 646.293 741.9 646C743.953 645.56 746.007 644.973 748.06 644.24C750.26 643.507 752.607 642.553 755.1 641.38L758.84 664.7C753.853 666.753 748.427 668.22 742.56 669.1C736.84 669.98 731.267 670.42 725.84 670.42C719.533 670.42 713.96 669.907 709.12 668.88C704.28 667.853 700.173 665.873 696.8 662.94C693.427 660.007 690.86 655.9 689.1 650.62C687.34 645.193 686.46 638.153 686.46 629.5V587.04ZM820.22 648.64C823.153 648.64 826.013 648.64 828.8 648.64C831.587 648.493 834.007 648.273 836.06 647.98V624.22C834.3 623.927 832.173 623.707 829.68 623.56C827.187 623.267 824.913 623.12 822.86 623.12C820.073 623.12 817.36 623.34 814.72 623.78C812.08 624.073 809.733 624.66 807.68 625.54C805.773 626.42 804.233 627.667 803.06 629.28C801.887 630.893 801.3 633.02 801.3 635.66C801.3 640.353 803.06 643.727 806.58 645.78C810.1 647.687 814.647 648.64 820.22 648.64ZM817.8 561.96C826.307 561.96 833.347 562.987 838.92 565.04C844.64 566.947 849.187 569.733 852.56 573.4C855.933 576.92 858.353 581.32 859.82 586.6C861.287 591.733 862.02 597.527 862.02 603.98V665.58C858.06 666.46 852.193 667.487 844.42 668.66C836.647 669.833 827.92 670.42 818.24 670.42C811.64 670.42 805.627 669.833 800.2 668.66C794.92 667.487 790.373 665.58 786.56 662.94C782.747 660.153 779.813 656.633 777.76 652.38C775.707 647.98 774.68 642.627 774.68 636.32C774.68 630.307 775.853 625.247 778.2 621.14C780.547 617.033 783.7 613.733 787.66 611.24C791.62 608.747 796.167 606.987 801.3 605.96C806.433 604.787 811.787 604.2 817.36 604.2C824.4 604.2 830.633 604.787 836.06 605.96V602.66C836.06 597.527 834.447 593.273 831.22 589.9C827.993 586.38 822.42 584.62 814.5 584.62C809.367 584.62 804.38 584.987 799.54 585.72C794.847 586.453 791.033 587.333 788.1 588.36L784.36 566.58C787.733 565.407 792.5 564.38 798.66 563.5C804.82 562.473 811.2 561.96 817.8 561.96ZM977.74 663.6C977.3 663.893 976.273 664.407 974.66 665.14C973.193 665.873 971.213 666.68 968.72 667.56C966.227 668.293 963.147 668.953 959.48 669.54C955.96 670.127 951.927 670.42 947.38 670.42C934.913 670.42 925.82 666.753 920.1 659.42C914.38 651.94 911.52 641.087 911.52 626.86V539.08H882.92V516.64H938.58V628.84C938.58 635.88 939.973 640.647 942.76 643.14C945.547 645.633 949.067 646.88 953.32 646.88C958.747 646.88 963.293 646.147 966.96 644.68C970.627 643.213 973.047 642.26 974.22 641.82L977.74 663.6Z" fill="white"/>
</svg>
